<mxfile host="app.diagrams.net" modified="2023-08-15T06:14:38.779Z" agent="Mozilla/5.0 (Macintosh; Intel Mac OS X 10_15_7) AppleWebKit/605.1.15 (KHTML, like Gecko) Version/16.6 Safari/605.1.15" etag="DAb3Fo_ofVMeAcYJyjCG" version="21.6.8" type="github">
  <diagram name="Page-1" id="10a91c8b-09ff-31b1-d368-03940ed4cc9e">
    <mxGraphModel dx="1646" dy="743" grid="1" gridSize="10" guides="1" tooltips="1" connect="1" arrows="1" fold="1" page="1" pageScale="1" pageWidth="1100" pageHeight="850" background="none" math="0" shadow="0">
      <root>
        <mxCell id="0" />
        <mxCell id="1" parent="0" />
        <mxCell id="62893188c0fa7362-1" value="&lt;b&gt;hashMerkleRoot&lt;/b&gt;&lt;br&gt;Hash(N4||N5)" style="whiteSpace=wrap;html=1;rounded=1;shadow=1;labelBackgroundColor=none;strokeWidth=2;fontFamily=Verdana;fontSize=12;align=center;dashed=1;" parent="1" vertex="1">
          <mxGeometry x="520" y="30" width="160" height="60" as="geometry" />
        </mxCell>
        <mxCell id="du_VLxP9npXnoioeT4nY-35" style="edgeStyle=none;rounded=1;orthogonalLoop=1;jettySize=auto;html=1;exitX=0.5;exitY=0;exitDx=0;exitDy=0;entryX=0.5;entryY=1;entryDx=0;entryDy=0;" edge="1" parent="1" source="62893188c0fa7362-2" target="62893188c0fa7362-1">
          <mxGeometry relative="1" as="geometry" />
        </mxCell>
        <mxCell id="62893188c0fa7362-2" value="&lt;span&gt;&lt;b&gt;N4&lt;/b&gt;&lt;br&gt;Hash(N0||N1)&lt;/span&gt;" style="whiteSpace=wrap;html=1;rounded=1;shadow=1;labelBackgroundColor=none;strokeWidth=1;fontFamily=Verdana;fontSize=12;align=center;" parent="1" vertex="1">
          <mxGeometry x="360" y="140" width="120" height="60" as="geometry" />
        </mxCell>
        <mxCell id="du_VLxP9npXnoioeT4nY-21" style="edgeStyle=none;rounded=1;orthogonalLoop=1;jettySize=auto;html=1;exitX=0.5;exitY=0;exitDx=0;exitDy=0;entryX=0.5;entryY=1;entryDx=0;entryDy=0;" edge="1" parent="1" source="62893188c0fa7362-8" target="62893188c0fa7362-2">
          <mxGeometry relative="1" as="geometry" />
        </mxCell>
        <mxCell id="du_VLxP9npXnoioeT4nY-27" value="" style="edgeStyle=none;rounded=1;orthogonalLoop=1;jettySize=auto;html=1;" edge="1" parent="1" source="62893188c0fa7362-8" target="du_VLxP9npXnoioeT4nY-26">
          <mxGeometry relative="1" as="geometry" />
        </mxCell>
        <mxCell id="62893188c0fa7362-8" value="&lt;b&gt;N0&lt;/b&gt;&lt;br&gt;Hash(TX0)" style="whiteSpace=wrap;html=1;rounded=1;shadow=1;labelBackgroundColor=none;strokeWidth=1;fontFamily=Verdana;fontSize=12;align=center;" parent="1" vertex="1">
          <mxGeometry x="280" y="240" width="120" height="60" as="geometry" />
        </mxCell>
        <mxCell id="du_VLxP9npXnoioeT4nY-22" style="edgeStyle=none;rounded=1;orthogonalLoop=1;jettySize=auto;html=1;exitX=0.5;exitY=0;exitDx=0;exitDy=0;entryX=0.5;entryY=1;entryDx=0;entryDy=0;" edge="1" parent="1" source="62893188c0fa7362-9" target="62893188c0fa7362-2">
          <mxGeometry relative="1" as="geometry" />
        </mxCell>
        <mxCell id="du_VLxP9npXnoioeT4nY-29" value="" style="edgeStyle=none;rounded=1;orthogonalLoop=1;jettySize=auto;html=1;" edge="1" parent="1" source="62893188c0fa7362-9" target="du_VLxP9npXnoioeT4nY-28">
          <mxGeometry relative="1" as="geometry" />
        </mxCell>
        <mxCell id="62893188c0fa7362-9" value="&lt;span&gt;&lt;b&gt;N1&lt;/b&gt;&lt;br&gt;Hash(TX1)&lt;/span&gt;" style="whiteSpace=wrap;html=1;rounded=1;shadow=1;labelBackgroundColor=none;strokeWidth=2;fontFamily=Verdana;fontSize=12;align=center;dashed=1;" parent="1" vertex="1">
          <mxGeometry x="440" y="240" width="120" height="60" as="geometry" />
        </mxCell>
        <mxCell id="du_VLxP9npXnoioeT4nY-25" style="edgeStyle=none;rounded=1;orthogonalLoop=1;jettySize=auto;html=1;exitX=0.5;exitY=0;exitDx=0;exitDy=0;entryX=0.5;entryY=1;entryDx=0;entryDy=0;" edge="1" parent="1" source="du_VLxP9npXnoioeT4nY-2" target="du_VLxP9npXnoioeT4nY-34">
          <mxGeometry relative="1" as="geometry">
            <mxPoint x="770" y="220" as="targetPoint" />
          </mxGeometry>
        </mxCell>
        <mxCell id="du_VLxP9npXnoioeT4nY-31" value="" style="edgeStyle=none;rounded=1;orthogonalLoop=1;jettySize=auto;html=1;" edge="1" parent="1" source="du_VLxP9npXnoioeT4nY-2" target="du_VLxP9npXnoioeT4nY-30">
          <mxGeometry relative="1" as="geometry" />
        </mxCell>
        <mxCell id="du_VLxP9npXnoioeT4nY-2" value="&lt;span&gt;&lt;b&gt;N2&lt;/b&gt;&lt;br&gt;Hash(TX2)&lt;/span&gt;" style="whiteSpace=wrap;html=1;rounded=1;shadow=1;labelBackgroundColor=none;strokeWidth=1;fontFamily=Verdana;fontSize=12;align=center;" vertex="1" parent="1">
          <mxGeometry x="640" y="240" width="120" height="60" as="geometry" />
        </mxCell>
        <mxCell id="du_VLxP9npXnoioeT4nY-24" style="edgeStyle=none;rounded=1;orthogonalLoop=1;jettySize=auto;html=1;exitX=0.5;exitY=0;exitDx=0;exitDy=0;entryX=0.5;entryY=1;entryDx=0;entryDy=0;" edge="1" parent="1" source="du_VLxP9npXnoioeT4nY-3" target="du_VLxP9npXnoioeT4nY-34">
          <mxGeometry relative="1" as="geometry">
            <mxPoint x="810" y="210" as="targetPoint" />
          </mxGeometry>
        </mxCell>
        <mxCell id="du_VLxP9npXnoioeT4nY-33" value="" style="edgeStyle=none;rounded=1;orthogonalLoop=1;jettySize=auto;html=1;" edge="1" parent="1" source="du_VLxP9npXnoioeT4nY-3" target="du_VLxP9npXnoioeT4nY-32">
          <mxGeometry relative="1" as="geometry" />
        </mxCell>
        <mxCell id="du_VLxP9npXnoioeT4nY-3" value="&lt;span&gt;&lt;b&gt;N3&lt;/b&gt;&lt;br&gt;Hash(TX3)&lt;/span&gt;" style="whiteSpace=wrap;html=1;rounded=1;shadow=1;labelBackgroundColor=none;strokeWidth=1;fontFamily=Verdana;fontSize=12;align=center;" vertex="1" parent="1">
          <mxGeometry x="800" y="240" width="120" height="60" as="geometry" />
        </mxCell>
        <mxCell id="du_VLxP9npXnoioeT4nY-26" value="&lt;b&gt;TX0&lt;/b&gt;" style="whiteSpace=wrap;html=1;fontFamily=Verdana;rounded=0;shadow=1;labelBackgroundColor=none;strokeWidth=1;" vertex="1" parent="1">
          <mxGeometry x="280" y="330" width="120" height="60" as="geometry" />
        </mxCell>
        <mxCell id="du_VLxP9npXnoioeT4nY-28" value="&lt;b&gt;TX1&lt;/b&gt;" style="rounded=0;whiteSpace=wrap;html=1;fontFamily=Verdana;shadow=1;labelBackgroundColor=none;strokeWidth=1;" vertex="1" parent="1">
          <mxGeometry x="440" y="330" width="120" height="60" as="geometry" />
        </mxCell>
        <mxCell id="du_VLxP9npXnoioeT4nY-30" value="&lt;b&gt;TX2&lt;/b&gt;" style="rounded=0;whiteSpace=wrap;html=1;fontFamily=Verdana;shadow=1;labelBackgroundColor=none;strokeWidth=1;" vertex="1" parent="1">
          <mxGeometry x="640" y="330" width="120" height="60" as="geometry" />
        </mxCell>
        <mxCell id="du_VLxP9npXnoioeT4nY-37" value="&amp;nbsp; &amp;nbsp; &amp;nbsp;数据层" style="whiteSpace=wrap;html=1;rounded=0;strokeWidth=1.5;fillColor=none;align=left;" vertex="1" parent="1">
          <mxGeometry x="155" y="307.5" width="890" height="105" as="geometry" />
        </mxCell>
        <mxCell id="du_VLxP9npXnoioeT4nY-32" value="&lt;b&gt;TX3&lt;/b&gt;" style="whiteSpace=wrap;html=1;fontFamily=Verdana;rounded=0;shadow=1;labelBackgroundColor=none;strokeWidth=1;" vertex="1" parent="1">
          <mxGeometry x="800" y="330" width="120" height="60" as="geometry" />
        </mxCell>
        <mxCell id="du_VLxP9npXnoioeT4nY-36" style="edgeStyle=none;rounded=1;orthogonalLoop=1;jettySize=auto;html=1;exitX=0.5;exitY=0;exitDx=0;exitDy=0;entryX=0.5;entryY=1;entryDx=0;entryDy=0;" edge="1" parent="1" source="du_VLxP9npXnoioeT4nY-34" target="62893188c0fa7362-1">
          <mxGeometry relative="1" as="geometry" />
        </mxCell>
        <mxCell id="du_VLxP9npXnoioeT4nY-34" value="&lt;span&gt;&lt;b&gt;N5&lt;/b&gt;&lt;br&gt;Hash(N2||N3)&lt;/span&gt;" style="whiteSpace=wrap;html=1;rounded=1;shadow=1;labelBackgroundColor=none;strokeWidth=2;fontFamily=Verdana;fontSize=12;align=center;dashed=1;" vertex="1" parent="1">
          <mxGeometry x="720" y="140" width="120" height="60" as="geometry" />
        </mxCell>
      </root>
    </mxGraphModel>
  </diagram>
</mxfile>
